<svg width="98" height="106" viewBox="0 0 98 106" fill="none" xmlns="http://www.w3.org/2000/svg">
<path d="M37.1484 43.6897C38.9081 46.8397 40.6678 50.1997 42.4274 53.3497C44.7736 49.9897 47.1199 46.4197 49.4661 43.0597C53.3764 43.0597 57.2868 43.0597 61.1971 43.0597" stroke="#073D37" stroke-width="3" stroke-miterlimit="10" stroke-linecap="round" stroke-linejoin="round"/>
<path d="M60.4141 63.6396C62.1737 65.7396 63.9334 67.8396 65.4975 69.9396C67.2572 67.6296 69.0168 65.5296 70.581 63.2196C73.9048 63.2196 77.0331 63.2196 80.3569 63.2196" stroke="#073D37" stroke-width="3" stroke-miterlimit="10" stroke-linecap="round" stroke-linejoin="round"/>
<path d="M15.6406 64.6897C17.4003 66.9997 19.1599 69.3097 20.9196 71.6197C22.6793 69.0997 24.6344 66.7897 26.3941 64.2697C29.7179 64.2697 33.2372 64.2697 36.561 64.2697" stroke="#073D37" stroke-width="3" stroke-miterlimit="10" stroke-linecap="round" stroke-linejoin="round"/>
<path d="M50.2474 85.8997C39.2984 85.8997 28.3494 86.1097 17.4004 86.1097" stroke="#073D37" stroke-width="3" stroke-miterlimit="10" stroke-linecap="round" stroke-linejoin="round"/>
<path d="M31.6738 53.9796C36.3663 43.2696 41.2542 32.5596 45.9466 21.6396C47.1197 19.1196 50.4435 19.1196 51.6167 21.4296C56.3091 31.0896 61.197 40.7496 65.8895 50.6196" stroke="#073D37" stroke-width="3" stroke-miterlimit="10" stroke-linecap="round" stroke-linejoin="round"/>
<path d="M50.6387 85.8996C56.6997 72.4596 62.5653 58.8096 68.6263 45.3696C69.2129 43.8996 71.1681 43.8996 71.7546 45.3696L91.5019 85.8996H50.6387Z" stroke="#073D37" stroke-width="3" stroke-miterlimit="10" stroke-linecap="round" stroke-linejoin="round"/>
<path d="M6.25586 86.1096C12.1214 72.6696 17.9869 59.4396 24.048 45.9996C24.8301 44.3196 26.9808 44.3196 27.7628 45.9996L47.3146 85.8996L6.25586 86.1096Z" stroke="#073D37" stroke-width="3" stroke-miterlimit="10" stroke-linecap="round" stroke-linejoin="round"/>
</svg>
