<svg width="32" height="21" viewBox="0 0 32 21" fill="none" xmlns="http://www.w3.org/2000/svg">
<path d="M2.9 0H29.05C30.7 0 32 1.3 32 2.85V18.15C32 19.75 30.7 21 29.1 21H2.9C1.3 21 0 19.7 0 18.15V2.85C0 1.3 1.3 0 2.9 0Z" fill="#CE1126"/>
<path d="M0 18.15C0 19.7 1.3 21 2.9 21H29.1C30.7 21 32 19.75 32 18.15V7H0V18.15Z" fill="black"/>
<path d="M32 7H0V14H32V7Z" fill="white"/>
<path d="M18.3008 12.7L18.2508 11.4L18.1508 8.90001C18.1508 8.30001 17.6008 8.45001 17.2508 8.65001C17.0508 8.80001 16.8008 8.85001 16.6008 8.85001C16.5008 8.70001 16.4008 8.35001 16.4508 8.10001C16.4508 7.85001 16.4508 7.70001 16.4008 7.65001C16.4008 7.60001 16.3508 7.60001 16.3508 7.60001C16.3008 7.55001 16.0508 7.50001 15.9508 7.45001C15.8508 7.45001 15.9008 7.50001 15.9008 7.50001C15.7508 7.45001 15.6008 7.45001 15.5508 7.50001L15.5008 7.55001C15.5008 7.60001 15.5008 7.70001 15.5008 7.70001C15.6008 7.60001 15.7008 7.70001 15.7508 7.80001C15.7508 7.80001 15.8008 7.85001 15.8008 7.90001C15.8008 8.00001 15.8008 8.20001 15.7508 8.40001C15.7008 8.60001 15.6008 8.75001 15.5008 8.90001C15.2508 8.90001 15.0508 8.85001 14.8508 8.70001C14.5008 8.50001 14.0008 8.35001 13.9508 8.95001L13.8008 12.75L14.0508 12.55L14.1508 12.5L14.2008 12.45L14.9008 11.8L15.0508 11.65L14.7008 12.5C14.6508 12.5 14.6008 12.45 14.5508 12.45C14.5008 12.45 14.5008 12.45 14.4508 12.5C14.3008 12.5 14.2508 12.65 14.3008 12.75C14.3008 12.75 14.3008 12.75 14.3508 12.75C14.3508 12.8 14.3008 12.8 14.3008 12.85C14.1508 12.8 14.1508 13.05 14.0508 13C14.1508 13 14.1008 13.2 14.2508 13.25C14.2508 13.35 14.2508 13.45 14.4008 13.45C14.7508 13.55 15.4008 13.6 16.0508 13.6C16.7008 13.6 17.3508 13.55 17.7008 13.45C17.8508 13.4 17.8508 13.35 17.8508 13.25C18.0008 13.2 17.9508 13 18.0508 13C17.9508 13.05 17.9008 12.8 17.8008 12.85C17.8008 12.8 17.8008 12.8 17.7508 12.75C17.7508 12.75 17.7508 12.75 17.8008 12.75C17.8508 12.65 17.8008 12.5 17.6508 12.5C17.6008 12.5 17.6008 12.45 17.5508 12.45C17.5008 12.45 17.4508 12.5 17.4008 12.5L17.1508 11.55L17.3508 11.7L17.4508 11.8L17.6508 12L17.9008 12.25L18.0008 12.35L18.1008 12.4L18.3008 12.7ZM15.8508 12.7C15.8508 12.7 15.8008 12.65 15.7508 12.65C15.7008 12.65 15.6008 12.65 15.5508 12.65L15.6008 12.45L15.7008 12.55L15.8008 12.45L15.9508 11.35L15.9008 12.5L16.0008 12.65L16.1008 12.5L16.0508 11.4L16.2008 12.5L16.3008 12.6L16.4008 12.5L16.4508 12.7C16.4008 12.7 16.3008 12.7 16.2508 12.7C16.2008 12.7 16.1508 12.75 16.1508 12.8C16.1508 12.8 16.1508 12.8 16.1508 12.75C16.0508 12.75 16.0508 12.8 16.0508 12.9H16.0008H15.9508C15.9508 12.75 15.9008 12.7 15.8508 12.7ZM14.4008 12.65C14.4508 12.65 14.4508 12.65 14.4008 12.65V12.65ZM17.5508 12.65C17.6008 12.65 17.6008 12.65 17.5508 12.65C17.6008 12.65 17.6008 12.65 17.6008 12.65H17.5508Z" fill="#FCD327"/>
</svg>
