<svg width="80" height="90" viewBox="0 0 80 90" fill="none" xmlns="http://www.w3.org/2000/svg">
<path d="M12.0371 75.2872C29.617 70.2875 47.1969 65.1093 64.7767 60.1096C65.2519 62.4309 65.8854 64.9307 66.3605 67.252C48.939 72.4302 31.3591 77.4299 13.9376 82.6081C13.3041 80.2869 12.6706 77.787 12.0371 75.2872Z" stroke="#073D37" stroke-width="3" stroke-miterlimit="10" stroke-linecap="round" stroke-linejoin="round"/>
<path d="M20.7477 69.5732C17.8969 68.859 15.0461 68.1448 12.1953 67.4305C12.8288 65.1093 13.4623 62.9665 13.9375 60.6453C21.8563 63.1451 29.9336 65.6449 37.8524 67.9662" stroke="#073D37" stroke-width="3" stroke-miterlimit="10" stroke-linejoin="round"/>
<path d="M57.6495 72.6088C60.5002 73.5016 63.5094 74.3944 66.3602 75.1086C65.7267 77.2513 65.0932 79.5726 64.6181 81.7153C56.0657 79.5726 47.5133 77.4299 38.9609 75.1086" stroke="#073D37" stroke-width="3" stroke-miterlimit="10" stroke-linecap="round" stroke-linejoin="round"/>
<path d="M34.5269 58.8597C28.0334 59.7525 21.6983 56.717 18.5308 51.0031C14.413 43.6821 15.9967 32.79 22.9653 26.5404C22.807 27.0761 21.8567 31.183 24.2324 34.9327C26.7664 38.861 31.0426 38.861 31.3593 38.861" stroke="#073D37" stroke-width="3" stroke-miterlimit="10" stroke-linecap="round" stroke-linejoin="round"/>
<path d="M30.4092 32.79C30.4092 30.1116 30.726 24.7548 33.5768 18.8623C37.3778 11.3628 43.0794 7.97016 45.1383 6.8988C44.8215 7.97016 39.5951 24.0405 47.514 34.0399C48.6226 35.4684 50.5231 37.4325 53.3739 38.861C53.849 38.1468 54.9577 36.3612 55.1161 34.0399C55.5912 29.7544 53.0572 26.7189 52.7404 26.3618C59.2339 28.8617 63.5101 35.2898 63.6684 42.2536C63.8268 50.8245 57.3333 58.6811 48.781 59.5739C49.8896 57.9669 50.3647 56.3598 50.5231 55.2885C51.315 49.0389 46.2469 41.8965 37.6946 37.4325C40.5453 41.8965 39.12 47.6104 36.2692 49.2175C33.5767 50.6459 29.1422 49.0389 27.4 44.2178C27.2417 45.1106 26.7665 47.6104 27.7168 50.4674C28.3503 52.253 29.1422 53.3243 29.7757 54.0386" stroke="#073D37" stroke-width="3" stroke-miterlimit="10" stroke-linecap="round" stroke-linejoin="round"/>
</svg>
