<svg width="32" height="22" viewBox="0 0 32 22" fill="none" xmlns="http://www.w3.org/2000/svg">
<path d="M2.9 0H29.05C30.7 0 32 1.30628 32 2.86377V18.2377C32 19.8454 30.7 21.1014 29.1 21.1014H2.9C1.3 21.1014 0 19.7952 0 18.2377V2.86377C0 1.30628 1.3 0 2.9 0Z" fill="white"/>
<path d="M2.9 21.1014H10.65V0H2.9C1.3 0 0 1.30628 0 2.86377V18.2879C0 19.8454 1.3 21.1517 2.9 21.1014Z" fill="#009246"/>
<path d="M29.0996 21.1014H21.3496V0H29.0996C30.6996 0 31.9996 1.30628 31.9996 2.86377V18.2879C31.9996 19.8454 30.6996 21.1517 29.0996 21.1014Z" fill="#CE2B37"/>
</svg>
