<svg width="86" height="86" viewBox="0 0 86 86" fill="none" xmlns="http://www.w3.org/2000/svg">
<g clip-path="url(#clip0_272_401)">
<path d="M74.7646 29.8397C74.7646 45.9897 74.9346 62.3097 74.9346 78.4597C67.6246 74.7197 60.3146 70.9797 52.8346 67.2397C45.5246 70.9797 38.3846 74.5497 31.0746 78.2897C23.7646 74.5497 16.4546 70.8097 8.97461 67.0697C8.97461 50.7497 8.97461 34.4297 8.97461 17.9397C16.2846 21.6797 23.5946 25.2497 30.9046 28.9897C38.0446 25.5897 45.3546 22.0197 52.4946 18.6197" stroke="#073D37" stroke-width="3" stroke-miterlimit="10" stroke-linejoin="round"/>
<path d="M52.834 25.4197C52.834 32.3897 52.834 39.5297 52.834 46.4997" stroke="#073D37" stroke-width="3" stroke-miterlimit="10" stroke-linejoin="round"/>
<path d="M53.0039 53.9797C53.0039 58.3997 53.0039 62.9897 53.0039 67.4097" stroke="#073D37" stroke-width="3" stroke-miterlimit="10" stroke-linejoin="round"/>
<path d="M75.2752 24.0596C76.6352 22.1896 77.4852 19.9796 77.4852 17.4296C77.4852 11.1396 72.3852 5.86963 65.9252 5.86963C58.7852 5.86963 54.7052 12.4996 54.5352 17.4296C54.5352 17.7696 54.5352 19.6396 55.3852 21.6796C55.5552 22.1896 55.8952 22.6996 56.2352 23.2096" stroke="#073D37" stroke-width="3" stroke-miterlimit="10" stroke-linejoin="round"/>
<path d="M56.0645 23.2097C59.2945 27.9697 62.3545 32.7297 65.5845 37.4897C68.9845 32.7297 72.3845 27.9697 75.7845 23.2097" stroke="#073D37" stroke-width="3" stroke-miterlimit="10" stroke-linejoin="round"/>
<path d="M66.0939 22.3597C68.6289 22.3597 70.6839 20.3047 70.6839 17.7697C70.6839 15.2347 68.6289 13.1797 66.0939 13.1797C63.5589 13.1797 61.5039 15.2347 61.5039 17.7697C61.5039 20.3047 63.5589 22.3597 66.0939 22.3597Z" stroke="#073D37" stroke-width="3" stroke-miterlimit="10" stroke-linejoin="round"/>
<path d="M17.6445 52.1097C19.8545 54.3197 22.0645 56.5297 24.2745 58.7397" stroke="#073D37" stroke-width="3" stroke-miterlimit="10" stroke-linejoin="round"/>
<path d="M24.2745 52.1097C22.0645 54.3197 19.8545 56.5297 17.6445 58.7397" stroke="#073D37" stroke-width="3" stroke-miterlimit="10" stroke-linejoin="round"/>
<path d="M64.9049 42.7596C64.3949 43.6096 64.0549 44.2896 63.5449 45.1396" stroke="#073D37" stroke-width="3" stroke-miterlimit="10" stroke-linejoin="round"/>
<path d="M61.3341 47.8597C59.8041 48.5397 58.2741 49.2197 56.7441 49.8997" stroke="#073D37" stroke-width="3" stroke-miterlimit="10" stroke-linejoin="round"/>
<path d="M53.6841 50.5797C51.9841 50.0697 50.2841 49.5597 48.4141 49.2197" stroke="#073D37" stroke-width="3" stroke-miterlimit="10" stroke-linejoin="round"/>
<path d="M45.3555 48.0297C43.8255 47.1797 42.2955 46.1597 40.9355 45.3097" stroke="#073D37" stroke-width="3" stroke-miterlimit="10" stroke-linejoin="round"/>
<path d="M38.215 43.9497C36.685 43.0997 35.155 42.2497 33.625 41.3997" stroke="#073D37" stroke-width="3" stroke-miterlimit="10" stroke-linejoin="round"/>
<path d="M30.2251 41.0597C28.5251 41.0597 26.6551 41.2297 24.9551 41.2297" stroke="#073D37" stroke-width="3" stroke-miterlimit="10" stroke-linejoin="round"/>
<path d="M22.915 43.6097C22.235 45.1397 21.555 46.8397 20.875 48.3697" stroke="#073D37" stroke-width="3" stroke-miterlimit="10" stroke-linejoin="round"/>
<path d="M31.0742 45.1396C31.0742 56.1896 31.0742 67.4097 31.2442 78.4597" stroke="#073D37" stroke-width="3" stroke-miterlimit="10" stroke-linejoin="round"/>
<path d="M31.0742 29.1597C31.0742 31.7097 31.0742 36.9797 31.0742 36.9797" stroke="#073D37" stroke-width="3" stroke-miterlimit="10" stroke-linejoin="round"/>
</g>
<defs>
<clipPath id="clip0_272_401">
<rect width="85" height="85" fill="white" transform="translate(0.474609 0.429688)"/>
</clipPath>
</defs>
</svg>
