<svg width="32" height="26" viewBox="0 0 32 26" fill="none" xmlns="http://www.w3.org/2000/svg">
<path d="M2.9 0.978027H29.05C30.7 0.978027 32 2.5046 32 4.32474V22.2913C32 24.1701 30.7 25.638 29.1 25.638H2.9C1.3 25.638 0 24.1114 0 22.2913V4.32474C0 2.5046 1.3 0.978027 2.9 0.978027Z" fill="#BC091C"/>
<path d="M0 22.2913C0 24.1114 1.3 25.638 2.9 25.638H29.1C30.7 25.638 32 24.1701 32 22.2913V9.198H0V22.2913Z" fill="#BC091C"/>
<path d="M32 6.37976H0V20.1776H32V6.37976Z" fill="#FFC400"/>
<path d="M5.70057 11.6049C5.70057 11.6636 5.75057 11.6636 5.70057 11.6049C5.75057 11.6636 5.75057 11.6636 5.80057 11.6636H5.85057C5.85057 11.6636 5.85057 11.6636 5.85057 11.7223H5.90057C5.90057 11.7223 5.90057 11.781 5.95057 11.781C6.00057 11.781 6.00057 11.781 6.10057 11.781H5.75057V12.133H5.90057C5.85057 12.133 5.85057 12.133 5.85057 12.1917C5.85057 12.1917 5.85057 12.2504 5.90057 12.2504C5.95057 12.2504 5.95057 12.3091 5.95057 12.3091C5.95057 12.3678 5.95057 12.3678 5.90057 12.3678C5.90057 12.3678 5.85057 12.3678 5.85057 12.4264C5.85057 12.4264 5.85057 12.4851 5.90057 12.4851H6.70057C6.75057 12.4851 6.75057 12.4851 6.75057 12.4264C6.75057 12.4264 6.75057 12.3678 6.70057 12.3678C6.65057 12.3678 6.65057 12.3091 6.65057 12.3091C6.65057 12.2504 6.65057 12.2504 6.70057 12.2504C6.70057 12.2504 6.75057 12.2504 6.75057 12.1917C6.75057 12.1917 6.75057 12.133 6.70057 12.133H6.85057V11.781H6.50057C6.55057 11.781 6.60057 11.781 6.65057 11.781C6.70057 11.781 6.70057 11.781 6.70057 11.7223H6.75057V11.6636H6.80057L6.85057 11.6049C6.85057 11.6049 6.85057 11.6049 6.90057 11.5462H6.95057C6.95057 11.5462 6.95057 11.5462 6.90057 11.5462V11.4876V11.4289L6.85057 11.3702H6.80057V11.3115C6.80057 11.3115 6.75057 11.3115 6.70057 11.3115H6.65057H6.60057H6.55057H6.50057C6.50057 11.3115 6.50057 11.3115 6.50057 11.2528V11.1942V11.1355H6.55057V11.0768H6.50057V11.0181H6.45057V11.0768H6.40057V11.1355H6.45057V11.1942V11.2528C6.45057 11.2528 6.45057 11.2528 6.45057 11.3115C6.45057 11.3115 6.40057 11.3115 6.35057 11.3115H6.30057H6.25057H6.20057C6.15057 11.3115 6.15057 11.3115 6.10057 11.3115C6.10057 11.3115 6.10057 11.3115 6.10057 11.3702C6.10057 11.3702 6.05057 11.3702 6.05057 11.4289L6.00057 11.4876C6.00057 11.5462 6.00057 11.6049 6.00057 11.6049H5.95057C5.65057 11.5462 5.65057 11.5462 5.70057 11.6049ZM6.45057 11.8396C6.40057 11.8396 6.30057 11.8396 6.25057 11.781C6.35057 11.781 6.40057 11.781 6.45057 11.8396ZM6.20057 11.781C6.10057 11.781 5.95057 11.781 5.90057 11.8396C5.95057 11.781 6.05057 11.781 6.20057 11.781Z" fill="#BC091C"/>
<path d="M6.74922 17.7112C6.74922 17.6526 6.74922 17.6526 6.74922 17.7112V17.4178C6.69922 17.4178 6.59922 17.3592 6.59922 17.3005C6.59922 17.3005 6.59922 17.3005 6.59922 17.2418C6.64922 17.2418 6.64922 17.2418 6.64922 17.1831C6.64922 17.1831 6.64922 17.1245 6.59922 17.1245H5.79922C5.74922 17.1245 5.74922 17.1245 5.74922 17.1831C5.74922 17.1831 5.74922 17.2418 5.79922 17.2418C5.79922 17.2418 5.79922 17.2418 5.79922 17.3005C5.79922 17.3592 5.74922 17.4178 5.64922 17.4178V17.7112C5.59922 17.7699 5.54922 17.7699 5.44922 17.7699V17.8873C5.49922 17.8873 5.59922 17.8873 5.64922 17.8286C5.64922 17.8286 5.64922 17.8286 5.69922 17.8286H5.64922C5.59922 17.8873 5.54922 17.8873 5.44922 17.8873V18.0046V18.122C5.49922 18.122 5.59922 18.122 5.64922 18.0633C5.59922 18.122 5.54922 18.122 5.44922 18.122V18.2394C5.49922 18.2394 5.59922 18.2394 5.64922 18.1807C5.69922 18.1807 5.74922 18.122 5.84922 18.122C5.89922 18.122 5.99922 18.122 6.04922 18.1807C6.09922 18.2394 6.14922 18.2394 6.24922 18.2394C6.29922 18.2394 6.39922 18.2394 6.44922 18.1807C6.49922 18.1807 6.54922 18.122 6.64922 18.122C6.69922 18.122 6.79922 18.122 6.84922 18.1807C6.79922 18.1807 6.74922 18.122 6.64922 18.122C6.59922 18.122 6.49922 18.122 6.44922 18.1807C6.39922 18.1807 6.34922 18.2394 6.24922 18.2394C6.19922 18.2394 6.09922 18.2394 6.04922 18.1807C5.99922 18.1807 5.94922 18.122 5.84922 18.122C5.79922 18.122 5.69922 18.122 5.64922 18.1807C5.59922 18.2394 5.54922 18.2394 5.44922 18.2394V18.3567C5.49922 18.3567 5.59922 18.3567 5.64922 18.298C5.69922 18.298 5.74922 18.2394 5.84922 18.2394C5.89922 18.2394 5.99922 18.2394 6.04922 18.298C6.09922 18.3567 6.14922 18.3567 6.24922 18.3567C6.29922 18.3567 6.39922 18.3567 6.44922 18.298C6.49922 18.298 6.54922 18.2394 6.64922 18.2394C6.69922 18.2394 6.79922 18.2394 6.84922 18.298C6.89922 18.3567 6.94922 18.3567 7.04922 18.3567V18.2394V18.122V18.0046V17.8873V17.7699C6.84922 17.7112 6.79922 17.7112 6.74922 17.7112ZM6.39922 17.7112C6.34922 17.7112 6.29922 17.7699 6.19922 17.7699C6.14922 17.7699 6.04922 17.7699 5.99922 17.7112H6.39922ZM5.84922 17.7699H5.79922C5.79922 17.7699 5.79922 17.7699 5.84922 17.7699ZM6.74922 17.8286C6.69922 17.8286 6.64922 17.7699 6.54922 17.7699C6.49922 17.7699 6.39922 17.7699 6.34922 17.8286C6.29922 17.8873 6.24922 17.8873 6.14922 17.8873C6.09922 17.8873 5.99922 17.8873 5.94922 17.8286C5.99922 17.8873 6.04922 17.8873 6.14922 17.8873C6.19922 17.8873 6.29922 17.8873 6.34922 17.8286C6.39922 17.8286 6.44922 17.7699 6.54922 17.7699C6.64922 17.7699 6.69922 17.7699 6.74922 17.8286Z" fill="#BC091C"/>
<path d="M12.7507 11.4876C12.7007 11.5462 12.7507 11.5462 12.7507 11.4876C12.7007 11.5462 12.7507 11.5462 12.7507 11.5462L12.8007 11.6049L12.8507 11.6636H12.9007C12.9007 11.6636 12.9007 11.6636 12.9007 11.7223H12.9507C12.9507 11.7223 12.9507 11.781 13.0007 11.781C13.0507 11.781 13.0507 11.781 13.1507 11.781H12.8007V12.133H12.9507C12.9007 12.133 12.9007 12.133 12.9007 12.1917C12.9007 12.1917 12.9007 12.2504 12.9507 12.2504C13.0007 12.2504 13.0007 12.3091 13.0007 12.3091C13.0007 12.3678 13.0007 12.3678 12.9507 12.3678C12.9507 12.3678 12.9007 12.3678 12.9007 12.4264C12.9007 12.4264 12.9007 12.4851 12.9507 12.4851H13.7507C13.8007 12.4851 13.8007 12.4851 13.8007 12.4264C13.8007 12.4264 13.8007 12.3678 13.7507 12.3678C13.7007 12.3678 13.7007 12.3091 13.7007 12.3091C13.7007 12.2504 13.7007 12.2504 13.7507 12.2504C13.7507 12.2504 13.8007 12.2504 13.8007 12.1917C13.8007 12.1917 13.8007 12.133 13.7507 12.133H13.9007V11.781H13.5507C13.6007 11.781 13.6507 11.781 13.7007 11.781C13.7507 11.781 13.7507 11.781 13.7507 11.7223H13.8007V11.6636H13.8507L13.9007 11.6049C13.9007 11.6049 13.9007 11.6049 13.9507 11.5462H14.0007C14.0007 11.5462 14.0007 11.5462 13.9507 11.5462V11.4876C13.9507 11.4289 13.9007 11.3115 13.8007 11.3115H13.7507L13.8007 11.3702C13.8007 11.3702 13.8007 11.3702 13.7507 11.3702C13.7507 11.3115 13.7007 11.2528 13.6507 11.2528C13.6007 11.2528 13.6007 11.2528 13.5507 11.2528L13.6507 11.3115C13.6007 11.3115 13.6007 11.3115 13.5507 11.3115C13.5507 11.3115 13.5507 11.3115 13.5507 11.2528C13.5507 11.1942 13.5507 11.1942 13.5007 11.1355V11.0768V11.0181H13.5507V10.9594H13.5007V10.9008H13.4507V10.9594H13.4007V11.0181H13.4507V11.0768V11.1355C13.4507 11.1355 13.4007 11.1942 13.4007 11.2528C13.4007 11.2528 13.4007 11.2528 13.4007 11.3115C13.4007 11.3115 13.3507 11.3115 13.3007 11.3115L13.4007 11.2528C13.4007 11.2528 13.3507 11.2528 13.3007 11.2528C13.2507 11.2528 13.2007 11.3115 13.2007 11.3702C13.2007 11.3702 13.2007 11.3702 13.1507 11.3702L13.2007 11.3115H13.1507C12.8507 11.3702 12.7507 11.4289 12.7507 11.4876ZM13.5507 11.8396C13.5007 11.8396 13.4007 11.8396 13.3507 11.781C13.4007 11.781 13.5007 11.781 13.5507 11.8396ZM13.2507 11.6636H13.3007C13.3007 11.6636 13.3007 11.6636 13.2507 11.6636ZM13.2507 11.781C13.1507 11.781 13.0007 11.781 12.9507 11.8396C13.0507 11.781 13.1507 11.781 13.2507 11.781Z" fill="#BC091C"/>
<path d="M13.8508 17.7112C13.8008 17.6526 13.8008 17.6526 13.8508 17.7112V17.4178C13.8008 17.4178 13.7008 17.3592 13.7008 17.3005C13.7008 17.3005 13.7008 17.3005 13.7008 17.2418C13.7508 17.2418 13.7508 17.2418 13.7508 17.1831C13.7508 17.1831 13.7508 17.1245 13.7008 17.1245H12.9008C12.8508 17.1245 12.8508 17.1245 12.8508 17.1831C12.8508 17.1831 12.8508 17.2418 12.9008 17.2418C12.9008 17.2418 12.9008 17.2418 12.9008 17.3005C12.9008 17.3592 12.8508 17.4178 12.7508 17.4178V17.7112C12.7008 17.7699 12.6508 17.7699 12.5508 17.7699V17.8873C12.6008 17.8873 12.7008 17.8873 12.7508 17.8286C12.7508 17.8286 12.7508 17.8286 12.8008 17.8286H12.7508C12.7008 17.8873 12.6508 17.8873 12.5508 17.8873V18.0046V18.122C12.6008 18.122 12.7008 18.122 12.7508 18.0633C12.7008 18.122 12.6508 18.122 12.5508 18.122V18.2394C12.6008 18.2394 12.7008 18.2394 12.7508 18.1807C12.8008 18.1807 12.8508 18.122 12.9508 18.122C13.0008 18.122 13.1008 18.122 13.1508 18.1807C13.2008 18.2394 13.2508 18.2394 13.3508 18.2394C13.4008 18.2394 13.5008 18.2394 13.5508 18.1807C13.6008 18.1807 13.6508 18.122 13.7508 18.122C13.8008 18.122 13.9008 18.122 13.9508 18.1807C13.9008 18.1807 13.8508 18.122 13.7508 18.122C13.7008 18.122 13.6008 18.122 13.5508 18.1807C13.5008 18.1807 13.4508 18.2394 13.3508 18.2394C13.3008 18.2394 13.2008 18.2394 13.1508 18.1807C13.1008 18.1807 13.0508 18.122 12.9508 18.122C12.9008 18.122 12.8008 18.122 12.7508 18.1807C12.7008 18.2394 12.6508 18.2394 12.5508 18.2394V18.3567C12.6008 18.3567 12.7008 18.3567 12.7508 18.298C12.8008 18.298 12.8508 18.2394 12.9508 18.2394C13.0008 18.2394 13.1008 18.2394 13.1508 18.298C13.2008 18.3567 13.2508 18.3567 13.3508 18.3567C13.4008 18.3567 13.5008 18.3567 13.5508 18.298C13.6008 18.298 13.6508 18.2394 13.7508 18.2394C13.8008 18.2394 13.9008 18.2394 13.9508 18.298C14.0008 18.3567 14.0508 18.3567 14.1508 18.3567V18.2394V18.122V18.0046V17.8873V17.7699C13.9508 17.7112 13.9008 17.7112 13.8508 17.7112ZM13.4508 17.7112C13.4008 17.7112 13.3508 17.7699 13.2508 17.7699C13.2008 17.7699 13.1008 17.7699 13.0508 17.7112H13.4508ZM13.8508 17.8286C13.8008 17.8286 13.7508 17.7699 13.6508 17.7699C13.6008 17.7699 13.5008 17.7699 13.4508 17.8286C13.4008 17.8873 13.3508 17.8873 13.2508 17.8873C13.2008 17.8873 13.1008 17.8873 13.0508 17.8286C13.1008 17.8873 13.1508 17.8873 13.2508 17.8873C13.3008 17.8873 13.4008 17.8873 13.4508 17.8286C13.5008 17.8286 13.5508 17.7699 13.6508 17.7699C13.7008 17.7699 13.8008 17.7699 13.8508 17.8286Z" fill="#BC091C"/>
<path d="M14.0505 14.6584C14.0505 14.6584 14.2005 14.1887 14.2505 14.1887C14.2505 14.0126 14.0505 13.8364 13.7005 13.719V12.6034H12.9505V13.6016C12.6505 13.6016 12.3505 13.6603 12.2005 13.719V11.8989H10.4505C10.7505 11.8402 11.0505 11.7814 11.3005 11.7227C11.3505 11.7227 11.3505 11.664 11.3505 11.664C11.3505 11.664 11.3505 11.6053 11.3005 11.6053C11.2505 11.6053 11.2505 11.5466 11.3005 11.4879L11.4005 11.4292L11.3505 11.3705C11.4005 11.3117 11.4005 11.3117 11.4505 11.3117C11.5005 11.3117 11.5005 11.3117 11.5005 11.253C11.5005 11.1943 11.5005 11.1943 11.4505 11.1943C11.4005 11.1943 11.4005 11.1943 11.3505 11.1943H11.4005C11.4505 11.1943 11.5505 11.1943 11.6005 11.1356C11.6505 11.0769 11.7505 10.9595 11.7505 10.9595C11.8005 10.9595 11.8005 10.9595 11.8505 10.9595C11.9005 10.9007 11.9005 10.842 11.8505 10.842C11.8505 10.842 11.9005 10.7246 11.9505 10.6659C12.0005 10.6072 12.1005 10.6659 12.1005 10.6659C12.1005 10.5485 12.0505 10.4897 11.9505 10.4897V10.431L12.0005 10.3723C12.0505 10.2549 12.1005 10.1375 12.1005 10.02C12.1005 9.78517 11.9505 9.60902 11.8005 9.43288L11.8505 9.49159C11.7005 9.37417 11.4505 9.25674 11.2005 9.25674C11.1505 9.25674 11.0505 9.25674 11.0005 9.25674C11.0005 9.25674 11.0005 9.25674 10.9505 9.25674H10.9005C10.9005 9.25674 10.9005 9.25674 10.8505 9.25674C10.8005 9.19802 10.7505 9.13931 10.7005 9.0806C10.7505 9.13931 10.8005 9.19802 10.8005 9.19802C10.7005 9.02188 10.4505 8.84574 10.2005 8.84574C10.0505 8.84574 9.90051 8.90445 9.75051 8.96317C9.75051 8.96317 9.75051 8.90445 9.70051 8.90445C9.70051 8.90445 9.70051 8.90445 9.75051 8.90445C9.80051 8.90445 9.80051 8.90445 9.80051 8.84574C9.80051 8.78702 9.80051 8.78702 9.75051 8.78702C9.70051 8.78702 9.70051 8.78702 9.70051 8.84574C9.70051 8.84574 9.65051 8.78702 9.60051 8.78702C9.65051 8.78702 9.70051 8.72831 9.75051 8.6696C9.75051 8.6696 9.75051 8.61088 9.75051 8.55217C9.75051 8.43474 9.70051 8.37602 9.60051 8.31731V8.14117H9.70051V8.02374H9.60051V7.90631H9.50051V8.02374H9.40051V8.14117H9.50051V8.31731C9.40051 8.31731 9.35051 8.43474 9.35051 8.55217C9.35051 8.61088 9.35051 8.61088 9.35051 8.6696C9.40051 8.72831 9.45051 8.78702 9.50051 8.78702C9.45051 8.78702 9.45051 8.84574 9.40051 8.84574C9.40051 8.78702 9.40051 8.78702 9.35051 8.78702C9.30051 8.78702 9.30051 8.78702 9.30051 8.84574C9.30051 8.90445 9.30051 8.90445 9.35051 8.90445C9.35051 8.90445 9.35051 8.90445 9.40051 8.90445C9.40051 8.90445 9.40051 8.96317 9.35051 8.96317C9.25051 8.90445 9.10051 8.84574 8.90051 8.84574C8.65051 8.84574 8.40051 8.96317 8.30051 9.19802C8.35051 9.13931 8.35051 9.0806 8.40051 9.0806C8.35051 9.13931 8.30051 9.19802 8.25051 9.25674C8.25051 9.25674 8.25051 9.25674 8.20051 9.25674C8.20051 9.25674 8.20051 9.25674 8.15051 9.25674C8.15051 9.25674 8.15051 9.25674 8.10051 9.25674C8.05051 9.25674 7.95051 9.25674 7.90051 9.25674C7.65051 9.25674 7.45051 9.31545 7.30051 9.43288C7.10051 9.55031 7.00051 9.78517 7.00051 10.02C7.00051 10.1375 7.05051 10.2549 7.10051 10.3723L7.15051 10.431C7.10051 10.431 7.05051 10.4897 7.05051 10.6072C7.05051 10.6072 7.15051 10.6072 7.20051 10.6072C7.25051 10.6659 7.30051 10.7833 7.30051 10.7833C7.30051 10.842 7.30051 10.842 7.35051 10.9007C7.40051 10.9595 7.40051 10.9595 7.45051 10.9007C7.50051 10.9595 7.55051 11.0769 7.60051 11.0769C7.65051 11.1356 7.75051 11.1356 7.80051 11.1356C7.80051 11.1356 7.80051 11.1356 7.85051 11.1356H7.80051C7.75051 11.1356 7.75051 11.1943 7.75051 11.1943C7.75051 11.253 7.80051 11.253 7.80051 11.253C7.80051 11.253 7.85051 11.253 7.90051 11.3117L7.85051 11.3705L7.95051 11.4292C7.95051 11.4879 7.95051 11.5466 7.95051 11.5466L7.90051 11.6053C7.90051 11.664 7.90051 11.664 7.95051 11.664C8.20051 11.7227 8.45051 11.7814 8.80051 11.8402H7.05051V13.6603C6.90051 13.6016 6.60051 13.5429 6.30051 13.5429V12.5447H5.55051V13.6603C5.20051 13.7777 4.95051 13.9539 5.00051 14.13L5.20051 14.5997C5.20051 14.7172 5.35051 14.7759 5.60051 14.7759V14.3649C5.55051 14.3649 5.45051 14.3649 5.40051 14.3649C5.45051 14.3062 5.50051 14.3062 5.60051 14.2474V14.3649V15.3043C5.30051 15.4217 5.10051 15.5979 5.10051 15.6566L5.15051 16.1263C5.15051 16.185 5.20051 16.185 5.25051 16.2437C5.35051 16.3024 5.35051 16.4199 5.35051 16.4786C5.40051 16.4199 5.45051 16.3024 5.45051 16.2437C5.45051 16.1263 5.40051 16.0676 5.35051 16.0089C5.40051 15.9502 5.50051 15.8914 5.60051 15.8914V17.1244H6.35051V15.4804C6.60051 15.3043 6.70051 15.1869 6.70051 15.1282C6.70051 15.1282 6.65051 14.7172 6.65051 14.6584C6.60051 14.5997 6.50051 14.5997 6.35051 14.541V14.952V14.13C6.65051 14.13 6.95051 14.1887 7.10051 14.3062V14.952V16.8309C7.10051 16.8896 7.10051 16.9483 7.10051 17.007C7.10051 17.1244 7.15051 17.3006 7.20051 17.418C7.25051 17.4767 7.25051 17.5354 7.30051 17.6529C7.30051 17.7116 7.35051 17.7116 7.35051 17.7703C7.45051 17.8877 7.60051 18.0052 7.70051 18.1226C8.20051 18.4162 8.85051 18.5923 9.45051 18.5923C10.0505 18.5923 10.7005 18.4162 11.2005 18.1226C11.4505 17.9464 11.6505 17.7116 11.7505 17.3593C11.8005 17.2419 11.8005 17.0657 11.8005 16.9483V15.0694V14.3649C11.9505 14.3062 12.2505 14.2474 12.5505 14.2474V14.4823C12.4005 14.4823 12.3005 14.541 12.2505 14.5997L12.2005 15.0694C12.1505 15.1282 12.3005 15.2456 12.5505 15.4217V17.0657H13.3005V15.8327C13.4005 15.8914 13.4505 15.8914 13.5505 15.9502C13.5005 16.0089 13.4505 16.1263 13.4505 16.185C13.4505 16.3024 13.5005 16.3612 13.5505 16.4199C13.5005 16.3612 13.5505 16.2437 13.6505 16.185C13.7005 16.1263 13.7505 16.1263 13.7505 16.0676L13.8005 15.5979C13.8005 15.5392 13.6005 15.363 13.3005 15.2456V14.1887C13.3505 14.2474 13.4505 14.2474 13.5005 14.3062C13.4505 14.3062 13.4005 14.3062 13.3005 14.3062V14.7172C13.9005 14.7759 14.0005 14.7172 14.0505 14.6584ZM12.0005 10.1375C12.0005 10.1375 12.0005 10.0787 12.0505 10.0787C12.0505 10.0787 12.0505 10.0787 12.0005 10.1375ZM11.0505 9.31545C11.1505 9.31545 11.2005 9.31545 11.3005 9.31545C11.6505 9.31545 11.9505 9.49159 12.0005 9.66774C12.0005 9.72645 12.0505 9.78517 12.0505 9.84388C12.0505 9.90259 12.0505 10.02 12.0005 10.0787C11.9505 10.02 11.8505 9.96131 11.7505 9.90259C11.5005 9.78517 11.3505 9.78517 11.2005 9.78517C11.1505 9.78517 11.1005 9.78517 11.1005 9.78517V9.72645V9.66774C11.1505 9.66774 11.1505 9.66774 11.1505 9.60902C11.1505 9.60902 11.1505 9.55031 11.1005 9.55031V9.49159C11.1005 9.49159 11.1505 9.49159 11.1505 9.43288C11.1505 9.37417 11.1505 9.37417 11.1005 9.37417C11.0505 9.37417 11.0505 9.31545 11.0505 9.31545ZM8.40051 9.37417C8.35051 9.37417 8.35051 9.37417 8.35051 9.43288C8.35051 9.43288 8.35051 9.49159 8.40051 9.49159V9.55031C8.40051 9.55031 8.35051 9.55031 8.35051 9.60902C8.35051 9.66774 8.35051 9.66774 8.40051 9.66774V9.72645C8.40051 9.72645 8.40051 9.72645 8.40051 9.78517C8.35051 9.78517 8.30051 9.78517 8.25051 9.78517C8.10051 9.78517 7.95051 9.84388 7.75051 9.90259C7.65051 9.96131 7.60051 10.02 7.50051 10.0787C7.45051 10.02 7.45051 9.96131 7.45051 9.84388C7.45051 9.78517 7.45051 9.72645 7.50051 9.66774C7.60051 9.43288 7.85051 9.31545 8.20051 9.31545C8.25051 9.31545 8.35051 9.31545 8.40051 9.31545C8.40051 9.31545 8.40051 9.31545 8.45051 9.31545C8.40051 9.31545 8.40051 9.37417 8.40051 9.37417ZM6.80051 14.7172L6.75051 14.7759C6.80051 14.7759 6.80051 14.7172 6.80051 14.7172ZM10.3505 8.96317C10.6505 8.96317 10.9005 9.13931 10.9505 9.43288V9.49159C10.9505 9.60902 10.9005 9.66774 10.8505 9.72645C10.7005 9.72645 10.6005 9.66774 10.5005 9.60902C10.3505 9.55031 10.1505 9.49159 9.95051 9.49159C9.95051 9.43288 9.95051 9.37417 9.95051 9.31545C9.95051 9.31545 9.95051 9.31545 9.95051 9.25674C9.95051 9.19802 9.95051 9.13931 9.95051 9.13931C10.0005 9.02188 10.1505 8.96317 10.3505 8.96317ZM8.95051 9.60902C8.85051 9.66774 8.75051 9.66774 8.60051 9.72645C8.55051 9.66774 8.50051 9.55031 8.50051 9.49159V9.43288C8.50051 9.19802 8.75051 8.96317 9.10051 8.96317C9.25051 8.96317 9.40051 9.02188 9.50051 9.0806C9.50051 9.13931 9.50051 9.13931 9.50051 9.19802C9.50051 9.19802 9.50051 9.19802 9.50051 9.25674C9.50051 9.31545 9.50051 9.37417 9.50051 9.43288C9.30051 9.49159 9.10051 9.55031 8.95051 9.60902ZM9.75051 11.3705C9.60051 11.3705 9.50051 11.3705 9.35051 11.3705C9.45051 11.3705 9.60051 11.3705 9.75051 11.3705C9.85051 11.3705 9.90051 11.3705 10.0005 11.3705C9.90051 11.3705 9.80051 11.3705 9.75051 11.3705Z" fill="#BC091C"/>
<path d="M7.3 10.4314C7.32761 10.4314 7.35 10.405 7.35 10.3725C7.35 10.34 7.32761 10.3136 7.3 10.3136C7.27239 10.3136 7.25 10.34 7.25 10.3725C7.25 10.405 7.27239 10.4314 7.3 10.4314Z" fill="#BC091C"/>
<path d="M7.24922 10.314C7.27683 10.314 7.29922 10.2876 7.29922 10.2551C7.29922 10.2225 7.27683 10.1962 7.24922 10.1962C7.2216 10.1962 7.19922 10.2225 7.19922 10.2551C7.19922 10.2876 7.2216 10.314 7.24922 10.314Z" fill="#BC091C"/>
<path d="M7.20039 10.1378C7.228 10.1378 7.25039 10.1115 7.25039 10.0789C7.25039 10.0464 7.228 10.02 7.20039 10.02C7.17278 10.02 7.15039 10.0464 7.15039 10.0789C7.15039 10.1115 7.17278 10.1378 7.20039 10.1378Z" fill="#BC091C"/>
<path d="M7.20039 9.9617C7.228 9.9617 7.25039 9.93532 7.25039 9.90279C7.25039 9.87025 7.228 9.84387 7.20039 9.84387C7.17278 9.84387 7.15039 9.87025 7.15039 9.90279C7.15039 9.93532 7.17278 9.9617 7.20039 9.9617Z" fill="#BC091C"/>
<path d="M7.20039 9.72684C7.228 9.72684 7.25039 9.70046 7.25039 9.66792C7.25039 9.63539 7.228 9.60901 7.20039 9.60901C7.17278 9.60901 7.15039 9.63539 7.15039 9.66792C7.15039 9.70046 7.17278 9.72684 7.20039 9.72684Z" fill="#BC091C"/>
<path d="M7.3 9.6094C7.32761 9.6094 7.35 9.58303 7.35 9.55049C7.35 9.51795 7.32761 9.49158 7.3 9.49158C7.27239 9.49158 7.25 9.51795 7.25 9.55049C7.25 9.58303 7.27239 9.6094 7.3 9.6094Z" fill="#BC091C"/>
<path d="M7.39961 9.43326C7.42722 9.43326 7.44961 9.40688 7.44961 9.37434C7.44961 9.34181 7.42722 9.31543 7.39961 9.31543C7.372 9.31543 7.34961 9.34181 7.34961 9.37434C7.34961 9.40688 7.372 9.43326 7.39961 9.43326Z" fill="#BC091C"/>
<path d="M7.55 9.31583C7.57761 9.31583 7.6 9.28945 7.6 9.25691C7.6 9.22437 7.57761 9.198 7.55 9.198C7.52239 9.198 7.5 9.22437 7.5 9.25691C7.5 9.28945 7.52239 9.31583 7.55 9.31583Z" fill="#BC091C"/>
<path d="M7.64961 9.25711C7.67722 9.25711 7.69961 9.23073 7.69961 9.1982C7.69961 9.16566 7.67722 9.13928 7.64961 9.13928C7.622 9.13928 7.59961 9.16566 7.59961 9.1982C7.59961 9.23073 7.622 9.25711 7.64961 9.25711Z" fill="#BC091C"/>
<path d="M7.85078 9.19839C7.8784 9.19839 7.90078 9.17202 7.90078 9.13948C7.90078 9.10694 7.8784 9.08057 7.85078 9.08057C7.82317 9.08057 7.80078 9.10694 7.80078 9.13948C7.80078 9.17202 7.82317 9.19839 7.85078 9.19839Z" fill="#BC091C"/>
<path d="M7.99922 9.13968C8.02683 9.13968 8.04922 9.1133 8.04922 9.08076C8.04922 9.04823 8.02683 9.02185 7.99922 9.02185C7.9716 9.02185 7.94922 9.04823 7.94922 9.08076C7.94922 9.1133 7.9716 9.13968 7.99922 9.13968Z" fill="#BC091C"/>
<path d="M8.14961 9.13968C8.17722 9.13968 8.19961 9.1133 8.19961 9.08076C8.19961 9.04823 8.17722 9.02185 8.14961 9.02185C8.12199 9.02185 8.09961 9.04823 8.09961 9.08076C8.09961 9.1133 8.12199 9.13968 8.14961 9.13968Z" fill="#BC091C"/>
<path d="M8.3 9.13968C8.32761 9.13968 8.35 9.1133 8.35 9.08076C8.35 9.04823 8.32761 9.02185 8.3 9.02185C8.27239 9.02185 8.25 9.04823 8.25 9.08076C8.25 9.1133 8.27239 9.13968 8.3 9.13968Z" fill="#BC091C"/>
<path d="M8.49922 9.13968C8.52683 9.13968 8.54922 9.1133 8.54922 9.08076C8.54922 9.04823 8.52683 9.02185 8.49922 9.02185C8.4716 9.02185 8.44922 9.04823 8.44922 9.08076C8.44922 9.1133 8.4716 9.13968 8.49922 9.13968Z" fill="#BC091C"/>
<path d="M8.60078 9.02225C8.6284 9.02225 8.65078 8.99587 8.65078 8.96333C8.65078 8.9308 8.6284 8.90442 8.60078 8.90442C8.57317 8.90442 8.55078 8.9308 8.55078 8.96333C8.55078 8.99587 8.57317 9.02225 8.60078 9.02225Z" fill="#BC091C"/>
<path d="M8.74922 8.96353C8.77683 8.96353 8.79922 8.93715 8.79922 8.90462C8.79922 8.87208 8.77683 8.8457 8.74922 8.8457C8.7216 8.8457 8.69922 8.87208 8.69922 8.90462C8.69922 8.93715 8.7216 8.96353 8.74922 8.96353Z" fill="#BC091C"/>
<path d="M8.89961 8.90481C8.92722 8.90481 8.94961 8.87844 8.94961 8.8459C8.94961 8.81336 8.92722 8.78699 8.89961 8.78699C8.87199 8.78699 8.84961 8.81336 8.84961 8.8459C8.84961 8.87844 8.87199 8.90481 8.89961 8.90481Z" fill="#BC091C"/>
<path d="M9.05 8.84616C9.07761 8.84616 9.1 8.81978 9.1 8.78725C9.1 8.75471 9.07761 8.72833 9.05 8.72833C9.02239 8.72833 9 8.75471 9 8.78725C9 8.81978 9.02239 8.84616 9.05 8.84616Z" fill="#BC091C"/>
<path d="M9.20039 8.84616C9.22801 8.84616 9.25039 8.81978 9.25039 8.78725C9.25039 8.75471 9.22801 8.72833 9.20039 8.72833C9.17278 8.72833 9.15039 8.75471 9.15039 8.78725C9.15039 8.81978 9.17278 8.84616 9.20039 8.84616Z" fill="#BC091C"/>
<path d="M9.39961 8.90481C9.42722 8.90481 9.44961 8.87844 9.44961 8.8459C9.44961 8.81336 9.42722 8.78699 9.39961 8.78699C9.37199 8.78699 9.34961 8.81336 9.34961 8.8459C9.34961 8.87844 9.37199 8.90481 9.39961 8.90481Z" fill="#BC091C"/>
<path d="M10.05 8.90481C10.0776 8.90481 10.1 8.87844 10.1 8.8459C10.1 8.81336 10.0776 8.78699 10.05 8.78699C10.0224 8.78699 10 8.81336 10 8.8459C10 8.87844 10.0224 8.90481 10.05 8.90481Z" fill="#BC091C"/>
<path d="M10.2004 8.84616C10.228 8.84616 10.2504 8.81978 10.2504 8.78725C10.2504 8.75471 10.228 8.72833 10.2004 8.72833C10.1728 8.72833 10.1504 8.75471 10.1504 8.78725C10.1504 8.81978 10.1728 8.84616 10.2004 8.84616Z" fill="#BC091C"/>
<path d="M10.3996 8.84616C10.4272 8.84616 10.4496 8.81978 10.4496 8.78725C10.4496 8.75471 10.4272 8.72833 10.3996 8.72833C10.372 8.72833 10.3496 8.75471 10.3496 8.78725C10.3496 8.81978 10.372 8.84616 10.3996 8.84616Z" fill="#BC091C"/>
<path d="M10.55 8.90481C10.5776 8.90481 10.6 8.87844 10.6 8.8459C10.6 8.81336 10.5776 8.78699 10.55 8.78699C10.5224 8.78699 10.5 8.81336 10.5 8.8459C10.5 8.87844 10.5224 8.90481 10.55 8.90481Z" fill="#BC091C"/>
<path d="M10.7004 8.96353C10.728 8.96353 10.7504 8.93715 10.7504 8.90462C10.7504 8.87208 10.728 8.8457 10.7004 8.8457C10.6728 8.8457 10.6504 8.87208 10.6504 8.90462C10.6504 8.93715 10.6728 8.96353 10.7004 8.96353Z" fill="#BC091C"/>
<path d="M10.8508 9.02225C10.8784 9.02225 10.9008 8.99587 10.9008 8.96333C10.9008 8.9308 10.8784 8.90442 10.8508 8.90442C10.8232 8.90442 10.8008 8.9308 10.8008 8.96333C10.8008 8.99587 10.8232 9.02225 10.8508 9.02225Z" fill="#BC091C"/>
<path d="M10.9504 9.13968C10.978 9.13968 11.0004 9.1133 11.0004 9.08076C11.0004 9.04823 10.978 9.02185 10.9504 9.02185C10.9228 9.02185 10.9004 9.04823 10.9004 9.08076C10.9004 9.1133 10.9228 9.13968 10.9504 9.13968Z" fill="#BC091C"/>
<path d="M11.1496 9.13968C11.1772 9.13968 11.1996 9.1133 11.1996 9.08076C11.1996 9.04823 11.1772 9.02185 11.1496 9.02185C11.122 9.02185 11.0996 9.04823 11.0996 9.08076C11.0996 9.1133 11.122 9.13968 11.1496 9.13968Z" fill="#BC091C"/>
<path d="M11.3 9.13968C11.3276 9.13968 11.35 9.1133 11.35 9.08076C11.35 9.04823 11.3276 9.02185 11.3 9.02185C11.2724 9.02185 11.25 9.04823 11.25 9.08076C11.25 9.1133 11.2724 9.13968 11.3 9.13968Z" fill="#BC091C"/>
<path d="M11.4504 9.13968C11.478 9.13968 11.5004 9.1133 11.5004 9.08076C11.5004 9.04823 11.478 9.02185 11.4504 9.02185C11.4228 9.02185 11.4004 9.04823 11.4004 9.08076C11.4004 9.1133 11.4228 9.13968 11.4504 9.13968Z" fill="#BC091C"/>
<path d="M11.6008 9.19839C11.6284 9.19839 11.6508 9.17202 11.6508 9.13948C11.6508 9.10694 11.6284 9.08057 11.6008 9.08057C11.5732 9.08057 11.5508 9.10694 11.5508 9.13948C11.5508 9.17202 11.5732 9.19839 11.6008 9.19839Z" fill="#BC091C"/>
<path d="M11.7492 9.25711C11.7768 9.25711 11.7992 9.23073 11.7992 9.1982C11.7992 9.16566 11.7768 9.13928 11.7492 9.13928C11.7216 9.13928 11.6992 9.16566 11.6992 9.1982C11.6992 9.23073 11.7216 9.25711 11.7492 9.25711Z" fill="#BC091C"/>
<path d="M11.8996 9.31583C11.9272 9.31583 11.9496 9.28945 11.9496 9.25691C11.9496 9.22437 11.9272 9.198 11.8996 9.198C11.872 9.198 11.8496 9.22437 11.8496 9.25691C11.8496 9.28945 11.872 9.31583 11.8996 9.31583Z" fill="#BC091C"/>
<path d="M12.05 9.43326C12.0776 9.43326 12.1 9.40688 12.1 9.37434C12.1 9.34181 12.0776 9.31543 12.05 9.31543C12.0224 9.31543 12 9.34181 12 9.37434C12 9.40688 12.0224 9.43326 12.05 9.43326Z" fill="#BC091C"/>
<path d="M12.1496 9.6094C12.1772 9.6094 12.1996 9.58303 12.1996 9.55049C12.1996 9.51795 12.1772 9.49158 12.1496 9.49158C12.122 9.49158 12.0996 9.51795 12.0996 9.55049C12.0996 9.58303 12.122 9.6094 12.1496 9.6094Z" fill="#BC091C"/>
<path d="M12.2492 9.72684C12.2768 9.72684 12.2992 9.70046 12.2992 9.66792C12.2992 9.63539 12.2768 9.60901 12.2492 9.60901C12.2216 9.60901 12.1992 9.63539 12.1992 9.66792C12.1992 9.70046 12.2216 9.72684 12.2492 9.72684Z" fill="#BC091C"/>
<path d="M12.2492 9.9617C12.2768 9.9617 12.2992 9.93532 12.2992 9.90279C12.2992 9.87025 12.2768 9.84387 12.2492 9.84387C12.2216 9.84387 12.1992 9.87025 12.1992 9.90279C12.1992 9.93532 12.2216 9.9617 12.2492 9.9617Z" fill="#BC091C"/>
<path d="M12.2492 10.1378C12.2768 10.1378 12.2992 10.1115 12.2992 10.0789C12.2992 10.0464 12.2768 10.02 12.2492 10.02C12.2216 10.02 12.1992 10.0464 12.1992 10.0789C12.1992 10.1115 12.2216 10.1378 12.2492 10.1378Z" fill="#BC091C"/>
<path d="M12.2004 10.314C12.228 10.314 12.2504 10.2876 12.2504 10.2551C12.2504 10.2225 12.228 10.1962 12.2004 10.1962C12.1728 10.1962 12.1504 10.2225 12.1504 10.2551C12.1504 10.2876 12.1728 10.314 12.2004 10.314Z" fill="#BC091C"/>
<path d="M12.1496 10.4314C12.1772 10.4314 12.1996 10.405 12.1996 10.3725C12.1996 10.34 12.1772 10.3136 12.1496 10.3136C12.122 10.3136 12.0996 10.34 12.0996 10.3725C12.0996 10.405 12.122 10.4314 12.1496 10.4314Z" fill="#BC091C"/>
</svg>
